<svg width="32" height="32" viewBox="0 0 32 32" fill="none" xmlns="http://www.w3.org/2000/svg">
<g clip-path="url(#clip0_12_41)">
<path d="M27.0894 5.98938C25.0494 5.06938 22.8627 4.38938 20.576 4.00271C20.5557 3.9988 20.5346 4.00132 20.5157 4.00992C20.4968 4.01852 20.4811 4.03278 20.4707 4.05071C20.1907 4.54271 19.8787 5.18405 19.66 5.69071C17.2348 5.32836 14.7692 5.32836 12.344 5.69071C12.1005 5.12919 11.8258 4.58168 11.5214 4.05071C11.511 4.03256 11.4954 4.01798 11.4766 4.00893C11.4578 3.99987 11.4367 3.99678 11.416 4.00005C9.1307 4.38671 6.94403 5.06671 4.9027 5.98805C4.88514 5.99541 4.87025 6.00797 4.86003 6.02405C0.710697 12.124 -0.426636 18.0734 0.13203 23.948C0.133585 23.9624 0.138051 23.9764 0.145157 23.989C0.152263 24.0016 0.16186 24.0126 0.173364 24.0214C2.59522 25.7846 5.29648 27.1278 8.16403 27.9947C8.18402 28.0009 8.2054 28.0008 8.22538 27.9947C8.24536 27.9885 8.26301 27.9764 8.27603 27.96C8.89203 27.1334 9.44136 26.26 9.9107 25.3427C9.9387 25.2894 9.91203 25.2254 9.85603 25.204C8.9947 24.8797 8.16014 24.4883 7.36003 24.0334C7.34565 24.0252 7.33354 24.0135 7.32477 23.9995C7.31601 23.9854 7.31087 23.9694 7.30981 23.9529C7.30875 23.9364 7.31181 23.9199 7.31872 23.9048C7.32562 23.8898 7.33615 23.8767 7.34936 23.8667C7.51736 23.7427 7.68536 23.6134 7.84536 23.484C7.85977 23.4724 7.87711 23.465 7.89548 23.4627C7.91384 23.4603 7.93249 23.4631 7.94936 23.4707C13.1854 25.8227 18.856 25.8227 24.0307 23.4707C24.0476 23.4626 24.0665 23.4595 24.0851 23.4616C24.1037 23.4637 24.1214 23.471 24.136 23.4827C24.296 23.6134 24.4627 23.7427 24.632 23.8667C24.6454 23.8765 24.6561 23.8894 24.6632 23.9043C24.6703 23.9192 24.6736 23.9357 24.6728 23.9522C24.6721 23.9687 24.6672 23.9848 24.6587 23.9989C24.6501 24.0131 24.6382 24.0249 24.624 24.0334C23.8267 24.492 22.9974 24.88 22.1267 25.2027C22.1133 25.2076 22.1011 25.2152 22.091 25.2252C22.0808 25.2351 22.0728 25.2471 22.0677 25.2603C22.0625 25.2736 22.0602 25.2878 22.061 25.302C22.0617 25.3162 22.0655 25.3301 22.072 25.3427C22.552 26.2587 23.1014 27.1307 23.7054 27.9587C23.7179 27.9757 23.7354 27.9884 23.7555 27.9951C23.7755 28.0018 23.7971 28.0021 23.8174 27.996C26.6898 27.1316 29.3955 25.7877 31.82 24.0214C31.8319 24.0131 31.8418 24.0024 31.8491 23.99C31.8565 23.9776 31.8611 23.9637 31.8627 23.9494C32.5294 17.1574 30.7454 11.256 27.1307 6.02671C27.1218 6.00972 27.1072 5.99647 27.0894 5.98938ZM10.6934 20.3707C9.11736 20.3707 7.81736 18.9454 7.81736 17.1974C7.81736 15.448 9.09203 14.024 10.6934 14.024C12.3067 14.024 13.5947 15.46 13.5694 17.1974C13.5694 18.9467 12.2947 20.3707 10.6934 20.3707ZM21.3267 20.3707C19.7494 20.3707 18.4507 18.9454 18.4507 17.1974C18.4507 15.448 19.724 14.024 21.3267 14.024C22.94 14.024 24.228 15.46 24.2027 17.1974C24.2027 18.9467 22.9414 20.3707 21.3267 20.3707Z" fill="white"/>
</g>
<defs>
<clipPath id="clip0_12_41">
<rect width="32" height="32" fill="white"/>
</clipPath>
</defs>
</svg>
